<svg width="12" height="12" viewBox="0 0 12 12" fill="none" xmlns="http://www.w3.org/2000/svg">
<path fill-rule="evenodd" clip-rule="evenodd" d="M6 12C9.31371 12 12 9.31371 12 6C12 2.68629 9.31371 0 6 0C2.68629 0 0 2.68629 0 6C0 9.31371 2.68629 12 6 12ZM5.17347 4.69543L5.5 7H6.5L6.82653 4.69543L7 2H5L5.17347 4.69543ZM5.22449 9.71443C5.37415 9.8709 5.63265 10 6 10C6.36735 10 6.61565 9.8709 6.7653 9.71443C6.91496 9.55797 7 9.29066 7 9.07298V8.74644C7 8.53556 6.92177 8.35189 6.7653 8.19543C6.61565 8.03896 6.36054 7.96073 6 7.96073C5.63946 7.96073 5.38095 8.03896 5.22449 8.19543C5.07483 8.35189 5 8.53556 5 8.74644V9.07298C5 9.29066 5.07483 9.55797 5.22449 9.71443Z" fill="white"/>
</svg>
