<svg width="17" height="16" viewBox="0 0 17 16" fill="none" xmlns="http://www.w3.org/2000/svg">
<path fill-rule="evenodd" clip-rule="evenodd" d="M4.5 10.5L1 14L1.70711 14.7071L15.7071 0.707108L15 0L11.4859 3.51414C10.3827 3.17978 9.21235 3 8 3C5.18526 3 2.59686 3.9691 0.550278 5.59186L0.0710678 6.07107L0.914963 6.91496C2.8068 5.25579 5.28594 4.25 8 4.25C8.8485 4.25 9.67404 4.3483 10.4659 4.53415L8.95042 6.04959C8.63809 6.01681 8.32101 6 8 6C5.76926 6 3.72807 6.81158 2.15559 8.15559L3.04264 9.04264C4.32569 7.9738 5.95943 7.31163 7.74591 7.25409L5.41717 9.58283C5.01337 9.7757 4.63451 10.0124 4.28675 10.2867L4.5 10.5ZM8 10.25C7.85101 10.25 7.70364 10.2569 7.55815 10.2703L8.7784 9.05003C9.91296 9.197 10.9481 9.6609 11.7921 10.35L10.9025 11.2396C10.0998 10.6192 9.09303 10.25 8 10.25ZM13.0344 9.1077C12.2309 8.42053 11.2852 7.89485 10.2475 7.58091L11.231 6.59738C12.2246 6.97966 13.1331 7.53306 13.9206 8.22149L13.0344 9.1077ZM15.1604 6.9817C14.3873 6.29084 13.5137 5.71013 12.5642 5.26423L13.4978 4.33066C14.4238 4.8088 15.2796 5.40395 16.0456 6.09657L15.1604 6.9817ZM8 14C8.55228 14 9 13.5523 9 13C9 12.4477 8.55228 12 8 12C7.44772 12 7 12.4477 7 13C7 13.5523 7.44772 14 8 14Z" fill="black"/>
</svg>
